<?xml version="1.0" standalone="no"?>
<!DOCTYPE svg PUBLIC "-//W3C//DTD SVG 20010904//EN"
 "http://www.w3.org/TR/2001/REC-SVG-20010904/DTD/svg10.dtd">
<svg version="1.0" xmlns="http://www.w3.org/2000/svg"
 width="982.000000pt" height="982.000000pt" viewBox="0 0 982.000000 982.000000"
 preserveAspectRatio="xMidYMid meet">
<metadata>
Created by potrace 1.14, written by Peter Selinger 2001-2017
</metadata>
<g transform="translate(0.000000,982.000000) scale(0.100000,-0.100000)"
fill="#000000" stroke="none">
<path d="M4898 9813 l4902 -3 0 -4900 0 -4900 -4902 -3 -4903 -2 4913 -3 4912
-2 0 4910 0 4910 -4912 -2 -4913 -3 4903 -2z"/>
<path d="M4535 8695 c-181 -16 -278 -29 -445 -62 -123 -25 -152 -31 -215 -48
-324 -85 -650 -216 -913 -367 -46 -26 -86 -48 -88 -48 -10 0 -301 -198 -375
-254 -332 -255 -639 -580 -868 -919 -105 -156 -275 -461 -321 -577 -7 -19 -25
-60 -38 -90 -40 -90 -93 -238 -132 -370 -12 -41 -26 -86 -30 -100 -4 -14 -13
-47 -20 -75 -6 -27 -15 -66 -20 -85 -26 -98 -59 -293 -81 -485 -16 -134 -16
-655 0 -770 35 -260 35 -261 61 -390 20 -96 51 -228 60 -255 4 -14 18 -59 30
-100 66 -229 215 -571 350 -805 87 -151 323 -489 380 -545 3 -3 39 -43 80 -90
334 -378 730 -680 1190 -906 192 -95 293 -136 490 -200 170 -56 177 -58 285
-84 190 -45 258 -57 510 -92 121 -17 717 -17 845 0 117 15 208 29 280 43 51
10 73 14 190 40 50 11 112 27 150 39 14 4 45 13 70 20 238 67 603 224 825 355
208 123 463 307 630 454 52 46 278 272 336 336 137 152 343 439 457 636 62
108 157 298 201 404 18 44 39 94 46 110 94 216 199 626 234 915 26 206 31 292
31 500 0 207 -5 288 -30 500 -19 155 -69 414 -100 510 -4 14 -13 45 -20 70
-105 371 -286 758 -510 1090 -187 276 -401 517 -685 770 -99 89 -369 289 -455
338 -19 11 -66 39 -105 63 -143 88 -433 226 -614 294 -42 15 -219 74 -286 94
-54 16 -279 69 -345 81 -36 6 -85 15 -110 20 -52 10 -197 26 -361 40 -145 13
-383 11 -564 -5z m1095 -1443 c0 -514 3 -681 12 -690 9 -9 222 -12 895 -12
l883 0 -2 -587 -3 -588 -892 -3 -893 -2 -2 -1908 -3 -1907 -725 0 -725 0 -5
1905 -5 1905 -890 5 -890 5 0 588 0 587 882 0 c864 0 882 0 893 19 7 13 10
245 10 690 l0 671 730 0 730 0 0 -678z"/>
<path d="M4300 7813 c0 -21 0 -321 0 -668 0 -346 -4 -636 -8 -642 -6 -10 -202
-13 -903 -15 l-894 -3 0 -490 0 -490 898 -3 c493 -1 898 -3 899 -5 2 -1 5
-859 8 -1907 l5 -1905 585 0 585 0 5 1905 5 1905 885 5 885 5 3 492 2 493
-887 2 -888 3 -5 675 -5 675 -587 3 -588 2 0 -37z m1064 -79 c3 -9 6 -314 6
-680 l0 -664 888 -2 887 -3 0 -390 0 -390 -885 -5 -885 -5 -5 -1905 c-3 -1048
-6 -1906 -8 -1908 -1 -1 -215 -1 -474 0 l-473 3 -5 1905 c-3 1048 -6 1906 -8
1907 -1 2 -406 4 -899 5 l-898 3 0 390 0 390 900 5 900 5 2 665 c2 366 5 671
8 678 3 9 107 12 474 12 418 0 470 -2 475 -16z"/>
</g>
</svg>
